<!-- Generated by IcoMoon.io -->
<svg version="1.1" xmlns="http://www.w3.org/2000/svg" width="1024" height="1024" viewBox="0 0 1024 1024">
<title></title>
<g id="icomoon-ignore">
</g>
<path d="M516.471 0.018c-286.31-2.355-518.809 230.144-516.454 516.454 2.406 278.016 229.529 505.19 507.494 507.494 286.31 2.458 518.912-230.144 516.454-516.454-2.304-277.913-229.478-505.087-507.494-507.494zM363.384 254.84c32.768 41.626 52.378 94.31 52.378 151.45 0 49.51-14.694 95.59-39.936 134.041h-177.51l165.069-285.49zM904.567 566.75v36.864c0 2.406-1.28 4.454-3.482 5.376-12.032 5.12-51.712 23.552-68.25 46.49-42.598 59.29-75.11 152.474-147.814 152.474h-303.36c-107.418 0-197.274-85.248-197.222-198.81 0-2.816 2.406-5.12 5.222-5.12h143.77c4.966 0 8.858 3.994 8.858 8.858v27.75c0 14.746 11.93 26.726 26.726 26.726h109.056v-63.488h-74.496c42.854-54.272 68.352-122.778 68.352-197.375 0-83.2-31.898-159.078-84.121-215.808 31.59 3.686 61.798 9.984 90.265 18.33v-17.664c0-18.33 14.848-33.178 33.178-33.178s33.178 14.848 33.178 33.178v42.598c101.786 47.514 168.448 126.362 168.448 215.551 0 52.326-22.886 101.018-62.362 141.978-7.578 7.834-18.074 12.288-29.082 12.288h-76.954v63.386h96.614c20.838 0 58.214-39.526 75.93-63.334 0 0 0.768-1.178 2.816-1.792s177.408-40.858 177.408-40.858c3.686-1.024 7.322 1.792 7.322 5.53v0.051z"></path>
</svg>
